<?xml version="1.0" standalone="no"?>
<!DOCTYPE svg PUBLIC "-//W3C//DTD SVG 20010904//EN"
 "http://www.w3.org/TR/2001/REC-SVG-20010904/DTD/svg10.dtd">
<svg version="1.0" xmlns="http://www.w3.org/2000/svg"
 width="60.000000pt" height="75.000000pt" viewBox="0 0 60.000000 75.000000"
 preserveAspectRatio="xMidYMid meet">

<g transform="translate(0.000000,75.000000) scale(0.100000,-0.100000)"
fill="#000000" stroke="none">
<path d="M296 692 c6 -4 14 -19 18 -34 5 -21 3 -28 -9 -28 -8 0 -15 -9 -15
-19 0 -11 -4 -23 -10 -26 -5 -3 -10 -10 -10 -16 0 -5 5 -9 10 -9 6 0 10 7 10
15 0 9 7 18 15 21 8 4 15 12 15 19 0 7 7 16 16 19 13 5 13 10 -6 36 -12 16
-27 30 -33 30 -8 0 -9 -2 -1 -8z"/>
<path d="M350 688 c0 -9 5 -20 10 -23 13 -8 13 5 0 25 -8 13 -10 13 -10 -2z"/>
<path d="M234 663 c-10 -47 -14 -54 -24 -48 -5 3 -10 1 -10 -4 0 -13 2 -13 34
-1 17 6 26 6 26 0 0 -6 -10 -10 -21 -10 -17 0 -20 -4 -15 -22 3 -13 6 -32 7
-43 0 -14 3 -12 9 9 5 16 7 33 4 38 -3 4 2 5 10 2 10 -4 16 -1 16 9 0 8 7 27
14 43 17 32 11 51 -10 33 -11 -9 -14 -8 -14 5 0 27 -19 18 -26 -11z m36 -23
c0 -5 -5 -10 -11 -10 -5 0 -7 5 -4 10 3 6 8 10 11 10 2 0 4 -4 4 -10z"/>
<path d="M405 640 c-3 -5 -1 -10 4 -10 6 0 11 5 11 10 0 6 -2 10 -4 10 -3 0
-8 -4 -11 -10z"/>
<path d="M470 640 c8 -5 20 -10 25 -10 6 0 3 5 -5 10 -8 5 -19 10 -25 10 -5 0
-3 -5 5 -10z"/>
<path d="M344 619 c-4 -8 -3 -9 4 -5 7 4 12 2 12 -4 0 -7 -9 -14 -20 -17 -11
-3 -20 -11 -20 -18 0 -6 -14 -22 -30 -35 -29 -22 -29 -23 -10 -37 11 -8 17
-20 14 -28 -4 -10 0 -15 15 -15 26 0 27 11 1 30 -22 16 -26 35 -10 45 6 3 14
-5 19 -18 14 -35 26 -40 29 -11 1 15 -3 24 -13 24 -21 0 -19 24 5 45 18 16 25
14 21 -8 -1 -5 3 -6 8 -3 13 9 9 58 -6 63 -6 2 -15 -1 -19 -8z"/>
<path d="M385 600 c-3 -5 1 -10 9 -10 9 0 16 5 16 10 0 6 -4 10 -9 10 -6 0
-13 -4 -16 -10z"/>
<path d="M86 473 c-10 -21 -22 -62 -27 -93 -5 -30 -11 -64 -13 -75 -2 -11 0
-49 5 -85 10 -72 40 -125 90 -160 30 -22 31 -22 20 -2 -15 29 -14 37 4 22 32
-27 23 -2 -13 36 -21 21 -41 48 -46 59 -15 37 -19 144 -6 160 6 8 9 23 5 36
-4 12 -3 24 1 28 19 13 33 73 23 92 -14 27 -23 24 -43 -18z m14 -323 c0 -5 -5
-10 -11 -10 -5 0 -7 5 -4 10 3 6 8 10 11 10 2 0 4 -4 4 -10z"/>
<path d="M480 491 c-6 -13 -7 -28 -1 -43 29 -71 33 -93 33 -182 -1 -38 -5 -73
-11 -79 -6 -6 -11 -17 -11 -25 0 -7 -17 -29 -37 -49 -34 -32 -35 -35 -13 -28
l25 8 -20 -24 -20 -23 33 23 c28 20 31 25 20 39 -11 15 -11 15 3 5 13 -11 19
-10 33 6 53 58 58 246 9 343 -13 26 -26 48 -28 48 -2 0 -9 -9 -15 -19z m30
-15 c0 -3 -4 -8 -10 -11 -5 -3 -10 -1 -10 4 0 6 5 11 10 11 6 0 10 -2 10 -4z"/>
<path d="M200 488 c0 -14 18 -17 28 -5 8 10 6 13 -9 13 -10 0 -19 -4 -19 -8z"/>
<path d="M255 491 c3 -6 -3 -14 -12 -20 -11 -6 -13 -11 -5 -11 13 0 42 23 42
34 0 3 -7 6 -16 6 -8 0 -13 -4 -9 -9z"/>
<path d="M360 489 c0 -5 8 -9 18 -10 11 -1 9 -4 -8 -9 -14 -4 -19 -8 -12 -9
29 -2 60 -61 32 -61 -5 0 -9 5 -7 12 1 6 -6 14 -15 16 -14 3 -18 -3 -18 -23 0
-19 5 -25 18 -23 12 2 18 -5 21 -22 1 -14 7 -27 11 -30 5 -3 6 -17 3 -33 -4
-22 -11 -27 -34 -27 -24 0 -29 -4 -29 -25 0 -21 5 -25 28 -25 16 0 35 -9 46
-21 11 -13 13 -20 4 -17 -7 3 -21 -6 -32 -19 -18 -24 -18 -24 0 -38 11 -8 22
-15 25 -15 12 0 31 60 26 80 -3 11 -1 20 3 20 4 0 8 32 7 70 0 41 -5 70 -11
70 -6 0 -5 5 2 12 17 17 15 57 -3 64 -10 4 -13 14 -9 29 3 13 0 26 -7 31 -19
12 -59 14 -59 3z m69 -238 c-15 -5 -22 6 -14 19 6 9 10 9 16 -1 5 -8 4 -15 -2
-18z m-19 -107 c0 -8 -5 -12 -10 -9 -6 4 -8 11 -5 16 9 14 15 11 15 -7z"/>
<path d="M180 465 c0 -8 4 -15 10 -15 5 0 7 7 4 15 -4 8 -8 15 -10 15 -2 0 -4
-7 -4 -15z"/>
<path d="M250 450 c-14 -4 -40 -10 -58 -15 -29 -7 -33 -11 -30 -38 3 -32 31
-45 54 -26 8 7 10 2 6 -16 -3 -18 0 -25 12 -25 12 0 14 7 10 33 -5 28 -4 30 8
16 11 -13 16 -14 25 -3 7 7 20 11 30 9 10 -2 21 -4 26 -4 4 -1 7 -12 7 -26 0
-18 5 -25 20 -25 11 0 20 5 20 11 0 5 -4 8 -9 5 -10 -6 -19 12 -31 61 -4 18
-4 34 1 37 5 2 4 3 -3 2 -7 -2 -24 0 -38 4 -14 3 -36 3 -50 0z m20 -41 c0 -11
-4 -17 -10 -14 -5 3 -10 13 -10 21 0 8 5 14 10 14 6 0 10 -9 10 -21z m-53 -11
c-3 -8 -6 -5 -6 6 -1 11 2 17 5 13 3 -3 4 -12 1 -19z m-23 -3 c3 -9 0 -15 -9
-15 -9 0 -12 6 -9 15 4 8 7 15 9 15 2 0 5 -7 9 -15z"/>
<path d="M170 330 c0 -12 5 -17 13 -14 8 3 14 11 14 19 0 8 -6 15 -14 15 -7 0
-13 -9 -13 -20z"/>
<path d="M280 300 c0 -12 7 -20 16 -20 11 0 14 5 10 16 -4 12 -2 15 9 10 8 -3
15 -1 15 4 0 6 -11 10 -25 10 -18 0 -25 -5 -25 -20z"/>
<path d="M160 265 c0 -21 5 -35 13 -35 9 0 9 -2 -1 -8 -18 -12 -4 -42 16 -36
14 5 13 2 -2 -10 -17 -14 -18 -19 -6 -41 8 -14 19 -24 26 -21 8 3 11 -1 8 -9
-7 -17 45 -45 85 -45 37 0 62 9 55 21 -3 5 1 7 8 4 7 -3 20 0 28 5 13 8 11 12
-8 26 -13 9 -21 22 -18 30 3 8 -1 14 -9 14 -9 0 -15 -10 -15 -25 0 -22 -4 -25
-35 -25 -31 0 -35 3 -35 25 0 20 -5 25 -25 25 -20 0 -29 8 -40 33 -7 18 -9 33
-4 35 5 2 9 19 9 38 0 30 -3 34 -25 34 -22 0 -25 -4 -25 -35z m34 0 c3 -9 0
-15 -9 -15 -9 0 -12 6 -9 15 4 8 7 15 9 15 2 0 5 -7 9 -15z m16 -126 c0 -5 -4
-9 -10 -9 -5 0 -10 7 -10 16 0 8 5 12 10 9 6 -3 10 -10 10 -16z"/>
<path d="M225 245 c0 -19 5 -25 23 -25 12 0 22 5 22 11 0 5 -4 7 -10 4 -5 -3
-10 0 -10 9 0 8 6 17 13 19 6 3 1 6 -13 6 -20 1 -25 -4 -25 -24z"/>
<path d="M280 186 c0 -19 4 -22 25 -18 16 3 25 11 25 23 0 14 -7 19 -25 19
-20 0 -25 -5 -25 -24z"/>
</g>
</svg>
